<svg width="24" height="24" viewBox="0 0 24 24" fill="none" xmlns="http://www.w3.org/2000/svg">
<path d="M13.0594 12L16.2563 8.8031C16.5469 8.51248 16.5469 8.03435 16.2563 7.74373C15.9656 7.4531 15.4875 7.4531 15.1969 7.74373L12 10.9406L8.80313 7.74373C8.5125 7.4531 8.03437 7.4531 7.74375 7.74373C7.59844 7.88904 7.52344 8.08123 7.52344 8.27341C7.52344 8.4656 7.59844 8.65779 7.74375 8.8031L10.9406 12L7.74375 15.1969C7.59844 15.3422 7.52344 15.5343 7.52344 15.7265C7.52344 15.9187 7.59844 16.1109 7.74375 16.2562C8.03437 16.5468 8.5125 16.5468 8.80313 16.2562L12 13.0594L15.1969 16.2562C15.4875 16.5468 15.9656 16.5468 16.2563 16.2562C16.5469 15.9656 16.5469 15.4875 16.2563 15.1969L13.0594 12Z" fill="#131313"/>
</svg>
