<svg width="24" height="24" viewBox="0 0 24 24" fill="none" xmlns="http://www.w3.org/2000/svg">
<g clip-path="url(#clip0_312_97)">
<path d="M12 0.0369873C5.373 0.0369873 0 5.39399 0 12C0 18.606 5.373 23.963 12 23.963C18.628 23.963 24 18.606 24 12C24 5.39399 18.627 0.0369873 12 0.0369873ZM11.459 4.83699C13.369 4.70699 15.335 5.23199 16.891 6.77099C18.317 8.20799 19.401 10.211 19.379 12.088H21.512L17.068 17.051L12.623 12.088H14.936C14.935 10.364 14.509 9.34599 13.156 8.01199C11.831 6.67599 10.489 5.90199 8.178 5.70899C9.20853 5.21863 10.3209 4.92332 11.459 4.83799V4.83699ZM6.934 6.94999L11.379 11.913H9.066C9.066 13.637 9.492 14.655 10.844 15.989C12.17 17.325 13.511 18.101 15.822 18.294C13.138 19.562 9.602 19.692 7.112 17.23C5.685 15.793 4.6 13.79 4.623 11.913H2.488L6.934 6.94999Z" fill="#F9F9F9"/>
</g>
<defs>
<clipPath id="clip0_312_97">
<rect width="24" height="24" fill="white"/>
</clipPath>
</defs>
</svg>
