<svg width="24" height="24" viewBox="0 0 24 24" fill="none" xmlns="http://www.w3.org/2000/svg">
<path fill-rule="evenodd" clip-rule="evenodd" d="M3.6001 20.4C3.6001 20.0818 3.72653 19.7765 3.95157 19.5515C4.17661 19.3265 4.48184 19.2 4.8001 19.2H19.2001C19.5184 19.2 19.8236 19.3265 20.0486 19.5515C20.2737 19.7765 20.4001 20.0818 20.4001 20.4C20.4001 20.7183 20.2737 21.0235 20.0486 21.2486C19.8236 21.4736 19.5184 21.6 19.2001 21.6H4.8001C4.48184 21.6 4.17661 21.4736 3.95157 21.2486C3.72653 21.0235 3.6001 20.7183 3.6001 20.4ZM7.5517 11.1516C7.77673 10.9267 8.0819 10.8003 8.4001 10.8003C8.71829 10.8003 9.02346 10.9267 9.2485 11.1516L10.8001 12.7032V3.60002C10.8001 3.28176 10.9265 2.97654 11.1516 2.7515C11.3766 2.52645 11.6818 2.40002 12.0001 2.40002C12.3184 2.40002 12.6236 2.52645 12.8486 2.7515C13.0737 2.97654 13.2001 3.28176 13.2001 3.60002V12.7032L14.7517 11.1516C14.8624 11.037 14.9948 10.9456 15.1412 10.8827C15.2876 10.8198 15.4451 10.7867 15.6044 10.7853C15.7638 10.7839 15.9218 10.8143 16.0692 10.8746C16.2167 10.935 16.3507 11.0241 16.4634 11.1368C16.576 11.2494 16.6651 11.3834 16.7255 11.5309C16.7858 11.6784 16.8162 11.8364 16.8148 11.9957C16.8134 12.155 16.7803 12.3125 16.7174 12.4589C16.6545 12.6053 16.5631 12.7377 16.4485 12.8484L12.8485 16.4484C12.6235 16.6734 12.3183 16.7998 12.0001 16.7998C11.6819 16.7998 11.3767 16.6734 11.1517 16.4484L7.5517 12.8484C7.32673 12.6234 7.20035 12.3182 7.20035 12C7.20035 11.6818 7.32673 11.3767 7.5517 11.1516Z" fill="#131313"/>
</svg>
